<svg width="42" height="42" viewBox="0 0 42 42" fill="none" xmlns="http://www.w3.org/2000/svg">
<circle cx="21" cy="21" r="20.5" fill="#F9B501" stroke="black"/>
<path fill-rule="evenodd" clip-rule="evenodd" d="M20.5001 7.22222C17.8307 7.22222 15.6667 9.38618 15.6667 12.0556C15.6667 14.7249 17.8307 16.8889 20.5001 16.8889C23.1694 16.8889 25.3334 14.7249 25.3334 12.0556C25.3334 9.38618 23.1694 7.22222 20.5001 7.22222ZM12.4445 12.0556C12.4445 7.60659 16.0511 4 20.5001 4C24.949 4 28.5556 7.60659 28.5556 12.0556C28.5556 16.5045 24.949 20.1111 20.5001 20.1111C16.0511 20.1111 12.4445 16.5045 12.4445 12.0556ZM8.35942 25.6927C9.87013 24.182 11.9191 23.3333 14.0556 23.3333H26.9444C29.0809 23.3333 31.1299 24.182 32.6406 25.6927C34.1513 27.2035 35 29.2524 35 31.3889V34.6111C35 35.5009 34.2787 36.2222 33.3889 36.2222C32.4991 36.2222 31.7778 35.5009 31.7778 34.6111V31.3889C31.7778 30.107 31.2686 28.8776 30.3621 27.9712C29.4557 27.0648 28.2263 26.5556 26.9444 26.5556H14.0556C12.7737 26.5556 11.5443 27.0648 10.6379 27.9712C9.73145 28.8776 9.22222 30.107 9.22222 31.3889V34.6111C9.22222 35.5009 8.5009 36.2222 7.61111 36.2222C6.72132 36.2222 6 35.5009 6 34.6111V31.3889C6 29.2524 6.84871 27.2035 8.35942 25.6927Z" fill="#2D2D2D"/>
</svg>
